<svg viewBox="0 0 640 512" xmlns="http://www.w3.org/2000/svg">
  <path d="M320 0C143.2 0 0 119.8 0 268.8c0 74.4 29.2 142.4 77.2 195.4 4.8 5.2 7.8 11 8.8 17.6h180c10.4 0 18.8-8.4 18.8-18.8 0-5.2-2-10-5.2-13.6-28.8-31.4-44.4-71.8-44.4-114.6 0-100.8 77.8-182.2 173.8-187.8 96-5.4 177.2 65 182.2 161 5 96-65 177.2-161 182.2-16.2 0-31.4-2.8-46-7.8-10-3.4-21.4 3-24.8 13-3.4 10 3 21.4 13 24.8 19.8 6.4 40.8 9.8 62.4 9.8 176.8 0 320-119.8 320-268.8S496.8 0 320 0zM192 288c-17.6 0-32 14.4-32 32s14.4 32 32 32 32-14.4 32-32-14.4-32-32-32zm256 0c-17.6 0-32 14.4-32 32s14.4 32 32 32 32-14.4 32-32-14.4-32-32-32z" fill="#21af90"/>
</svg>